<svg width="28" height="28" viewBox="0 0 28 28" fill="none" xmlns="http://www.w3.org/2000/svg">
<mask id="mask0_41_1212" style="mask-type:alpha" maskUnits="userSpaceOnUse" x="0" y="0" width="28" height="28">
<rect width="28" height="28" fill="#D9D9D9"/>
</mask>
<g mask="url(#mask0_41_1212)">
<path d="M7.00002 14.0583C7.00002 14.3694 7.01946 14.6757 7.05835 14.9771C7.09724 15.2784 7.1653 15.575 7.26252 15.8666C7.35974 16.1972 7.35002 16.5132 7.23335 16.8146C7.11669 17.1159 6.91252 17.3347 6.62085 17.4708C6.30974 17.6264 6.00349 17.6409 5.7021 17.5146C5.40071 17.3882 5.20141 17.1597 5.10419 16.8291C4.94863 16.3819 4.83683 15.925 4.76877 15.4583C4.70071 14.9916 4.66669 14.525 4.66669 14.0583C4.66669 11.4528 5.57085 9.23609 7.37919 7.40831C9.18752 5.58053 11.3945 4.66664 14 4.66664H14.2042L13.1542 3.61664C12.9403 3.40275 12.8334 3.13053 12.8334 2.79998C12.8334 2.46942 12.9403 2.1972 13.1542 1.98331C13.3681 1.76942 13.6403 1.66248 13.9709 1.66248C14.3014 1.66248 14.5736 1.76942 14.7875 1.98331L17.8209 5.01664C18.0542 5.24998 18.1709 5.5222 18.1709 5.83331C18.1709 6.14442 18.0542 6.41664 17.8209 6.64998L14.7875 9.68331C14.5736 9.8972 14.3014 10.0041 13.9709 10.0041C13.6403 10.0041 13.3681 9.8972 13.1542 9.68331C12.9403 9.46942 12.8334 9.1972 12.8334 8.86664C12.8334 8.53609 12.9403 8.26386 13.1542 8.04998L14.2042 6.99998H14C12.0556 6.99998 10.4028 7.68539 9.04169 9.05623C7.68058 10.4271 7.00002 12.0944 7.00002 14.0583ZM21 13.9416C21 13.6305 20.9806 13.3243 20.9417 13.0229C20.9028 12.7215 20.8347 12.425 20.7375 12.1333C20.6403 11.8028 20.65 11.4868 20.7667 11.1854C20.8834 10.884 21.0875 10.6653 21.3792 10.5291C21.6903 10.3736 21.9965 10.359 22.2979 10.4854C22.5993 10.6118 22.7986 10.8403 22.8959 11.1708C23.0514 11.618 23.1632 12.075 23.2313 12.5416C23.2993 13.0083 23.3334 13.475 23.3334 13.9416C23.3334 16.5472 22.4292 18.7639 20.6209 20.5916C18.8125 22.4194 16.6056 23.3333 14 23.3333H13.7959L14.8459 24.3833C15.0597 24.5972 15.1667 24.8694 15.1667 25.2C15.1667 25.5305 15.0597 25.8028 14.8459 26.0166C14.632 26.2305 14.3597 26.3375 14.0292 26.3375C13.6986 26.3375 13.4264 26.2305 13.2125 26.0166L10.1792 22.9833C9.94585 22.75 9.82919 22.4778 9.82919 22.1666C9.82919 21.8555 9.94585 21.5833 10.1792 21.35L13.2125 18.3166C13.4264 18.1028 13.6986 17.9958 14.0292 17.9958C14.3597 17.9958 14.632 18.1028 14.8459 18.3166C15.0597 18.5305 15.1667 18.8028 15.1667 19.1333C15.1667 19.4639 15.0597 19.7361 14.8459 19.95L13.7959 21H14C15.9445 21 17.5972 20.3146 18.9584 18.9437C20.3195 17.5729 21 15.9055 21 13.9416Z" fill="white"/>
</g>
</svg>
