<svg width="20" height="20" viewBox="0 0 20 20" fill="none" xmlns="http://www.w3.org/2000/svg">
<path d="M15.4824 7.74731C15.4824 10.9315 14.8869 14.5025 10.2913 14.3313C6.94646 14.2068 7.95545 12.8472 7.38279 11.6016C6.88174 9.73313 5.38959 8.58364 5.38959 7.40918C5.38959 4.225 7.28209 3.47656 10.2913 3.47656C13.3006 3.47656 15.2539 4.66797 15.4824 7.74731Z" fill="#FF4040"/>
<path d="M7.45174 14.3536C8.73517 15.3476 12.6081 15.4936 13.8439 14.2161C14.7774 13.2512 14.3476 14.7283 14.0815 15.5087C13.9861 15.7885 13.7787 16.0134 13.5132 16.1434L12.2515 16.7614C11.2451 17.2543 10.0751 17.2911 9.03927 16.8623L7.95834 16.415C7.69033 16.304 7.47224 16.0987 7.35787 15.8322C7.03287 15.0747 6.47877 13.6 7.45174 14.3536Z" fill="#FF4040"/>
<path d="M4.3447 11.7778C5.29052 13.3248 5.98454 14.0628 6.50435 13.8439C7.02415 13.6249 6.9829 12.3614 6.41224 11.0216C5.84153 9.68186 5.14876 8.51959 4.64724 8.78619C3.51887 9.386 3.39887 10.2308 4.3447 11.7778Z" fill="#FF4040"/>
</svg>
