<svg width="28" height="28" viewBox="0 0 28 28" fill="none" xmlns="http://www.w3.org/2000/svg">
<mask id="mask0_64_1692" style="mask-type:alpha" maskUnits="userSpaceOnUse" x="0" y="0" width="28" height="28">
<rect width="28" height="28" fill="#D9D9D9"/>
</mask>
<g mask="url(#mask0_64_1692)">
<path d="M6.82498 19.95C7.81665 19.1917 8.92498 18.5938 10.15 18.1563C11.375 17.7188 12.6583 17.5 14 17.5C15.3416 17.5 16.625 17.7188 17.85 18.1563C19.075 18.5938 20.1833 19.1917 21.175 19.95C21.8555 19.1528 22.3854 18.2487 22.7646 17.2375C23.1437 16.2264 23.3333 15.1473 23.3333 14C23.3333 11.4139 22.4243 9.21185 20.6062 7.39379C18.7882 5.57574 16.5861 4.66671 14 4.66671C11.4139 4.66671 9.21179 5.57574 7.39373 7.39379C5.57567 9.21185 4.66665 11.4139 4.66665 14C4.66665 15.1473 4.85623 16.2264 5.2354 17.2375C5.61456 18.2487 6.14442 19.1528 6.82498 19.95ZM14 15.1667C12.8528 15.1667 11.8854 14.773 11.0979 13.9855C10.3104 13.198 9.91665 12.2306 9.91665 11.0834C9.91665 9.93615 10.3104 8.96879 11.0979 8.18129C11.8854 7.39379 12.8528 7.00004 14 7.00004C15.1472 7.00004 16.1146 7.39379 16.9021 8.18129C17.6896 8.96879 18.0833 9.93615 18.0833 11.0834C18.0833 12.2306 17.6896 13.198 16.9021 13.9855C16.1146 14.773 15.1472 15.1667 14 15.1667ZM14 25.6667C12.3861 25.6667 10.8694 25.3605 9.44998 24.748C8.03054 24.1355 6.79581 23.3042 5.74581 22.2542C4.69581 21.2042 3.86456 19.9695 3.25206 18.55C2.63956 17.1306 2.33331 15.6139 2.33331 14C2.33331 12.3862 2.63956 10.8695 3.25206 9.45004C3.86456 8.0306 4.69581 6.79587 5.74581 5.74587C6.79581 4.69587 8.03054 3.86462 9.44998 3.25212C10.8694 2.63962 12.3861 2.33337 14 2.33337C15.6139 2.33337 17.1305 2.63962 18.55 3.25212C19.9694 3.86462 21.2041 4.69587 22.2541 5.74587C23.3041 6.79587 24.1354 8.0306 24.7479 9.45004C25.3604 10.8695 25.6666 12.3862 25.6666 14C25.6666 15.6139 25.3604 17.1306 24.7479 18.55C24.1354 19.9695 23.3041 21.2042 22.2541 22.2542C21.2041 23.3042 19.9694 24.1355 18.55 24.748C17.1305 25.3605 15.6139 25.6667 14 25.6667Z" fill="white"/>
</g>
</svg>
