<svg width="129" height="128" viewBox="0 0 129 128" fill="none" xmlns="http://www.w3.org/2000/svg">
<path d="M99.8375 49.5828C99.8375 69.9615 96.0265 92.816 66.6148 91.7205C45.2075 90.9235 51.665 82.222 48 74.25C44.7933 62.292 35.2435 54.9353 35.2435 47.4188C35.2435 27.04 47.3555 22.25 66.6148 22.25C85.8738 22.25 98.375 29.875 99.8375 49.5828Z" fill="#DCDCDC"/>
<path d="M48.441 91.863C56.655 98.2245 81.4415 99.159 89.3507 90.9832C95.3252 84.8075 92.5747 94.261 90.8715 99.2555C90.2607 101.046 88.9337 102.485 87.2345 103.318L79.1595 107.273C72.7185 110.428 65.2307 110.663 58.6012 107.919L51.6832 105.056C49.968 104.346 48.5722 103.032 47.8402 101.326C45.7602 96.4777 42.214 87.0402 48.441 91.863Z" fill="#DCDCDC"/>
<path d="M28.556 75.3783C34.6092 85.279 39.051 90.0023 42.3777 88.601C45.7045 87.1998 45.4405 79.113 41.7882 70.5385C38.1357 61.9643 33.702 54.5258 30.4922 56.232C23.2707 60.0708 22.5027 65.4775 28.556 75.3783Z" fill="#DCDCDC"/>
</svg>
