<svg width="129" height="128" viewBox="0 0 129 128" fill="none" xmlns="http://www.w3.org/2000/svg">
<path d="M99.3375 49.5828C99.3375 69.9615 95.5265 92.816 66.1148 91.7205C44.7075 90.9235 51.165 82.222 47.5 74.25C44.2933 62.292 34.7435 54.9353 34.7435 47.4188C34.7435 27.04 46.8555 22.25 66.1148 22.25C85.3738 22.25 97.875 29.875 99.3375 49.5828Z" fill="#FF4040"/>
<path d="M47.941 91.863C56.155 98.2245 80.9415 99.159 88.8507 90.9832C94.8252 84.8075 92.0747 94.261 90.3715 99.2555C89.7607 101.046 88.4337 102.485 86.7345 103.318L78.6595 107.273C72.2185 110.428 64.7307 110.663 58.1012 107.919L51.1832 105.056C49.468 104.346 48.0722 103.032 47.3402 101.326C45.2602 96.4777 41.714 87.0402 47.941 91.863Z" fill="#FF4040"/>
<path d="M28.056 75.3783C34.1092 85.279 38.551 90.0023 41.8777 88.601C45.2045 87.1998 44.9405 79.113 41.2882 70.5385C37.6357 61.9643 33.202 54.5258 29.9922 56.232C22.7707 60.0708 22.0027 65.4775 28.056 75.3783Z" fill="#FF4040"/>
</svg>
